<svg width="386" height="71" viewBox="0 0 386 71" fill="none" xmlns="http://www.w3.org/2000/svg">
<path d="M46.4226 70.152C42.4546 70.152 38.9666 69.256 35.9586 67.464C32.9506 65.608 30.6146 63.176 28.9506 60.168C27.2866 57.096 26.4546 53.736 26.4546 50.088V19.08C26.4546 17.928 26.1666 16.872 25.5906 15.912C25.0146 14.952 24.2466 14.184 23.2866 13.608C22.3266 13.032 21.2706 12.744 20.1186 12.744C18.9666 12.744 17.9106 13.032 16.9506 13.608C16.0546 14.184 15.3186 14.952 14.7426 15.912C14.1666 16.872 13.8786 17.928 13.8786 19.08V69H0.150625V20.712C0.150625 17 0.982625 13.64 2.64663 10.632C4.31063 7.624 6.64663 5.224 9.65463 3.432C12.6626 1.576 16.1506 0.647999 20.1186 0.647999C24.1506 0.647999 27.6706 1.576 30.6786 3.432C33.6866 5.224 36.0226 7.624 37.6866 10.632C39.3506 13.64 40.1826 17 40.1826 20.712V51.72C40.1826 52.872 40.4706 53.928 41.0466 54.888C41.6226 55.848 42.3586 56.616 43.2546 57.192C44.2146 57.768 45.2706 58.056 46.4226 58.056C47.5746 58.056 48.6306 57.768 49.5906 57.192C50.5506 56.616 51.3186 55.848 51.8946 54.888C52.4706 53.928 52.7586 52.872 52.7586 51.72V1.8H66.4866V50.088C66.4866 53.736 65.6546 57.096 63.9906 60.168C62.3266 63.176 59.9906 65.608 56.9826 67.464C53.9746 69.256 50.4546 70.152 46.4226 70.152ZM110.315 70.248C104.939 70.248 100.075 69.352 95.7231 67.56C91.4351 65.704 87.7551 63.176 84.6831 59.976C81.6111 56.776 79.2431 53.064 77.5791 48.84C75.9151 44.616 75.0831 40.104 75.0831 35.304C75.0831 30.504 75.9151 26.024 77.5791 21.864C79.2431 17.64 81.6111 13.928 84.6831 10.728C87.7551 7.528 91.4351 5.032 95.7231 3.23999C100.075 1.44799 104.939 0.551994 110.315 0.551994C115.691 0.551994 120.523 1.44799 124.811 3.23999C129.163 5.032 132.875 7.528 135.947 10.728C139.019 13.928 141.387 17.64 143.051 21.864C144.715 26.024 145.547 30.504 145.547 35.304C145.547 40.104 144.715 44.616 143.051 48.84C141.387 53.064 139.019 56.776 135.947 59.976C132.875 63.176 129.163 65.704 124.811 67.56C120.523 69.352 115.691 70.248 110.315 70.248ZM110.315 58.056C113.387 58.056 116.235 57.512 118.859 56.424C121.483 55.272 123.755 53.672 125.675 51.624C127.659 49.512 129.163 47.08 130.187 44.328C131.275 41.576 131.819 38.568 131.819 35.304C131.819 32.04 131.275 29.032 130.187 26.28C129.163 23.528 127.659 21.128 125.675 19.08C123.755 17.032 121.483 15.464 118.859 14.376C116.235 13.224 113.387 12.648 110.315 12.648C107.243 12.648 104.395 13.224 101.771 14.376C99.1471 15.464 96.8431 17.032 94.8591 19.08C92.9391 21.128 91.4351 23.528 90.3471 26.28C89.3231 29.032 88.8111 32.04 88.8111 35.304C88.8111 38.568 89.3231 41.576 90.3471 44.328C91.4351 47.08 92.9391 49.512 94.8591 51.624C96.8431 53.672 99.1471 55.272 101.771 56.424C104.395 57.512 107.243 58.056 110.315 58.056ZM200.454 70.056C196.678 70.056 193.254 69.192 190.182 67.464C187.174 65.736 184.806 63.368 183.078 60.36C181.35 57.352 180.486 53.896 180.486 49.992V19.08C180.486 17.928 180.198 16.872 179.622 15.912C179.046 14.952 178.278 14.184 177.318 13.608C176.358 13.032 175.302 12.744 174.15 12.744C172.998 12.744 171.942 13.032 170.982 13.608C170.086 14.184 169.35 14.952 168.774 15.912C168.198 16.872 167.91 17.928 167.91 19.08V69H154.182V20.712C154.182 17 155.014 13.64 156.678 10.632C158.342 7.624 160.678 5.224 163.686 3.432C166.694 1.576 170.182 0.647999 174.15 0.647999C178.182 0.647999 181.702 1.576 184.71 3.432C187.718 5.224 190.054 7.624 191.718 10.632C193.382 13.64 194.214 17 194.214 20.712V51.624C194.214 52.776 194.502 53.832 195.078 54.792C195.654 55.752 196.39 56.52 197.286 57.096C198.246 57.672 199.302 57.96 200.454 57.96C201.606 57.96 202.662 57.672 203.622 57.096C204.582 56.52 205.35 55.752 205.926 54.792C206.502 53.832 206.79 52.776 206.79 51.624V20.712C206.79 17 207.622 13.64 209.286 10.632C210.95 7.624 213.286 5.224 216.294 3.432C219.366 1.576 222.886 0.647999 226.854 0.647999C230.886 0.647999 234.374 1.576 237.318 3.432C240.326 5.224 242.662 7.624 244.326 10.632C245.99 13.64 246.822 17 246.822 20.712V69H233.094V19.08C233.094 17.928 232.806 16.872 232.23 15.912C231.718 14.952 230.982 14.184 230.022 13.608C229.062 13.032 228.006 12.744 226.854 12.744C225.702 12.744 224.646 13.032 223.686 13.608C222.726 14.184 221.958 14.952 221.382 15.912C220.806 16.872 220.518 17.928 220.518 19.08V49.992C220.518 53.896 219.622 57.352 217.83 60.36C216.102 63.368 213.734 65.736 210.726 67.464C207.718 69.192 204.294 70.056 200.454 70.056ZM252.578 69L274.466 9.288C275.554 6.408 277.25 4.264 279.554 2.856C281.922 1.384 284.578 0.647999 287.522 0.647999C290.466 0.647999 293.122 1.352 295.49 2.75999C297.858 4.104 299.554 6.248 300.578 9.192L322.562 69H307.49L302.978 55.464H271.682L266.978 69H252.578ZM275.81 43.368H298.946L289.25 13.896C289.122 13.448 288.898 13.128 288.578 12.936C288.322 12.744 288.002 12.648 287.618 12.648C287.234 12.648 286.914 12.776 286.658 13.032C286.402 13.224 286.21 13.512 286.082 13.896L275.81 43.368ZM327.829 69V1.8H350.485C357.653 1.8 363.861 3.24 369.109 6.12C374.357 9 378.421 12.968 381.301 18.024C384.245 23.08 385.717 28.872 385.717 35.4C385.717 41.928 384.245 47.72 381.301 52.776C378.421 57.832 374.357 61.8 369.109 64.68C363.861 67.56 357.653 69 350.485 69H327.829ZM341.557 56.904H350.485C354.645 56.904 358.325 56.04 361.525 54.312C364.789 52.584 367.349 50.12 369.205 46.92C371.061 43.656 371.989 39.816 371.989 35.4C371.989 30.92 371.061 27.08 369.205 23.88C367.349 20.68 364.789 18.216 361.525 16.488C358.325 14.76 354.645 13.896 350.485 13.896H341.557V56.904Z" fill="black"/>
</svg>
